<?xml version="1.0" standalone="no"?>
<!DOCTYPE svg PUBLIC "-//W3C//DTD SVG 1.1//EN" "http://www.w3.org/Graphics/SVG/1.1/DTD/svg11.dtd" >
<svg xmlns="http://www.w3.org/2000/svg">
<metadata>Generated by IcoMoon</metadata>
<defs>
<font id="iconsMemoria" horiz-adv-x="1024">
<font-face units-per-em="1024" ascent="960" descent="-64" />
<missing-glyph horiz-adv-x="1024" />
<glyph unicode="&#x20;" horiz-adv-x="512" d="" />
<glyph unicode="&#x30;" glyph-name="pregnant" horiz-adv-x="557" d="M206.377 613.327c23.661-10.516 47.979-13.802 73.612-9.202 52.58 9.859 90.701 59.153 90.701 111.733 0 0 0 0 0 0 0 0.657 0 0.657 0 1.315-0.657 22.347-7.23 44.693-19.718 63.096-14.46 20.375-33.52 34.834-56.524 43.379-42.721 15.774-95.302 1.972-124.221-33.52-16.431-19.718-25.633-42.064-27.605-67.040-1.972-22.347 3.944-46.665 15.774-66.383 10.516-17.746 28.262-34.177 47.979-43.379zM197.833 724.403c0.657 5.258 2.629 9.859 3.944 15.117 1.972 3.944 3.944 7.887 6.573 11.831 0 0.657 0.657 0.657 0.657 1.315 1.972 1.972 3.286 3.944 5.258 5.915s3.944 3.286 5.258 5.258c0.657 0.657 1.315 0.657 1.972 1.315 3.944 2.629 7.887 4.601 11.831 6.573 4.601 1.972 9.202 3.286 14.46 3.944s11.173 0.657 16.431 0c5.258-0.657 9.859-2.629 15.117-3.944 3.944-1.972 7.887-3.944 11.831-6.573 0.657 0 0.657-0.657 1.315-0.657 1.972-1.972 3.944-3.286 5.915-5.258s3.286-3.944 5.258-5.258c0.657-0.657 0.657-1.315 1.315-1.972 2.629-3.944 4.601-7.887 6.573-11.831 1.972-4.601 3.286-9.202 3.944-14.46 0-2.629 0.657-5.915 0.657-8.544s0-5.258-0.657-7.887-2.629-10.516-3.944-15.117c-1.972-3.944-3.944-7.887-6.573-11.831 0-0.657-0.657-0.657-0.657-1.315-1.972-1.972-3.286-3.944-5.258-5.915s-3.944-3.286-5.258-5.258c-0.657-0.657-1.315-0.657-1.972-1.315-3.944-2.629-7.887-4.601-11.831-6.573-4.601-1.972-9.202-3.286-14.46-3.944s-11.173-0.657-16.431 0c-5.258 0.657-9.859 2.629-15.117 3.944-3.944 1.972-7.887 3.944-11.831 6.573-0.657 0-0.657 0.657-1.315 0.657-1.972 1.972-3.944 3.286-5.915 5.258s-3.286 3.944-5.258 5.258c-0.657 0.657-0.657 1.315-1.315 1.972-2.629 3.944-4.601 7.887-6.573 11.831-1.972 4.601-3.286 9.202-3.944 14.46s-0.657 11.173 0 16.431zM450.875 381.317c-12.488 18.403-28.919 32.863-47.979 42.721 0 13.802 0 27.605-1.972 40.75-5.258 38.121-27.605 72.955-61.125 92.673-17.746 9.859-36.806 15.117-57.181 16.431-8.544 0.657-17.746 0-26.29 0s-17.089 0-25.633 0c-20.375-0.657-40.092-5.915-57.838-15.774-32.863-17.746-58.496-51.923-64.411-88.729-1.972-13.802-1.972-26.29-1.972-39.435 0-41.407 0-82.814 0-124.878 0-32.863-0.657-65.725 0-99.245 0-0.657 0-1.315 0-1.972 0-15.117 12.488-27.605 27.605-27.605 8.544 0 16.431 0 24.976 0 0-19.718 0-39.435 0-59.81 0-15.774 0-30.891 0-46.665 0-5.915 0-11.831 1.972-17.746 5.915-19.718 24.318-33.52 45.35-33.52 31.548 0 63.754 0 95.302 0 9.202 0 17.089 0.657 25.633 4.601 15.774 7.23 23.004 25.633 23.004 42.064 0 12.488 0 24.976 0 37.463 0 24.318 0 49.294 0 73.612 19.060 0 38.778 0 57.838 0 12.488 0 25.633 0 38.121 0 15.117 0 27.605 12.488 27.605 27.605 0 29.576 0 58.496 0 88.072 0 3.286 0 6.573 0 10.516 0 0.657 0 1.315 0 2.629 0.657 26.29-7.23 53.895-23.004 76.241zM295.764 67.15c0-0.657 0-0.657 0 0 0 0 0 0 0 0zM273.417 74.379c-19.060 0-37.463 0-56.524 0-1.315 0-1.972 0-3.286 0 0 12.488 0 24.976 0 37.463 0 21.689 0 43.379 0 65.068 8.544 0 17.089 0 25.633 0 18.403 0 36.806 0 55.866 0 0-32.205 0-63.754 0-95.959 0-2.629 0-4.601 0-7.23-6.573 0-13.802 0.657-21.689 0.657zM419.327 232.12c-26.29 0-52.58 0-78.213 0-4.601 0-9.859 0-14.46 0-1.315 0-1.972 0-3.286 0-0.657 0-0.657 0-1.315 0-39.435 0-78.87 0-118.306 0-5.915 0-11.173 0-17.089 0-4.601 0-9.202 0-13.802 0-3.286 0-7.23 0-10.516 0 0 19.060 0 38.778 0 57.838 0 44.036 0 88.072 0 132.765 0 11.173-0.657 23.004 0.657 34.834 1.315 5.915 2.629 11.173 4.601 17.089 2.629 5.258 5.258 9.859 7.887 14.46 0 0 0.657 0.657 0.657 1.315 0 0 0.657 0.657 0.657 0.657 1.972 2.629 3.944 4.601 6.573 7.23 1.972 1.972 4.601 4.601 7.23 6.573 0.657 0.657 1.315 1.315 2.629 1.972 4.601 3.286 9.202 5.915 13.802 7.887 5.915 1.972 11.831 3.944 18.403 5.258 10.516 1.315 21.032 0.657 31.548 0.657s21.032 0.657 31.548-0.657c5.915-1.315 11.831-2.629 17.089-4.601 3.944-1.972 8.544-4.601 12.488-6.573 0.657-0.657 1.972-1.315 2.629-1.972 0 0 0 0 0 0 1.972-1.972 4.601-3.944 6.573-5.915s3.944-4.601 5.915-6.573c0 0 0 0 0 0 0.657-0.657 1.315-1.315 1.315-1.972 3.286-4.601 5.258-9.202 7.887-13.802 1.972-5.915 3.944-11.831 5.258-18.403 1.972-17.089 0.657-34.177 0.657-51.266 0-13.145 8.544-22.347 20.375-26.29 0.657 0 1.315-0.657 1.972-0.657 5.258-2.629 10.516-5.258 15.117-8.544 0.657-0.657 1.315-1.315 1.972-1.315 0.657-0.657 1.315-0.657 1.315-1.315 2.629-1.972 4.601-4.601 7.23-6.573 1.972-1.972 3.944-4.601 5.915-6.573 0.657-1.315 1.972-1.972 2.629-3.286 3.286-4.601 5.915-9.859 8.544-15.117 2.629-7.23 4.601-15.117 5.915-23.661-0.657 2.629-0.657 4.601-1.315 7.23 1.315-5.258 1.315-9.859 1.315-15.117 0-26.947 0-51.266 0-75.584z" />
<glyph unicode="&#x31;" glyph-name="rayo" horiz-adv-x="648" d="M583.291 839.291c17.283 25.924-4.321 60.489-34.565 60.489h-237.637c-12.962 0-30.245-8.641-34.565-21.603l-224.675-436.388c-12.962-25.924 4.321-56.169 34.565-56.169h103.696l-142.582-384.54c-17.283-43.207 38.886-73.451 69.131-38.886l479.595 553.046c21.603 25.924 4.321 64.81-30.245 64.81h-129.62l146.903 259.241zM198.751 178.228l86.414 228.996c8.641 30.245-8.641 56.169-38.886 56.169h-95.055l181.468 358.616h146.903l-151.224-259.241c-17.283-25.924 4.321-60.489 34.565-60.489h112.338l-276.523-324.051z" />
<glyph unicode="&#x32;" glyph-name="recycle" horiz-adv-x="1027" d="M975.727 394.314c0-9.244-1.027-19.515-4.108-30.812-1.027-4.108-1.027-9.244-2.054-14.379-4.108-25.677-6.162-41.083-11.298-49.3-6.162-11.298-13.352-25.677-22.596-42.11-5.135-9.244-9.244-17.46-11.298-21.569-4.108-10.271-9.244-20.542-14.379-30.812-12.325-27.731-23.623-49.3-30.812-65.733-8.217-16.433-18.487-32.867-27.731-48.273-11.298-16.433-22.596-29.785-33.894-40.056-14.379-12.325-29.785-18.487-45.192-18.487l-85.248-1.027v-52.381c0-9.244-6.162-16.433-14.379-19.515-2.054-1.027-4.108-1.027-5.135-1.027-7.19 0-13.352 3.081-16.433 9.244l-109.898 174.604c-2.054 3.081-3.081 7.19-3.081 10.271s1.027 7.19 3.081 10.271l105.789 174.604c5.135 7.19 13.352 11.298 22.596 8.217 8.217-2.054 14.379-10.271 14.379-18.487v-49.3c28.758 1.027 63.679 2.054 95.519 6.162-10.271 16.433-32.867 51.354-66.76 102.708-33.894 53.408-54.435 84.221-60.598 93.464-3.081 4.108-4.108 10.271-2.054 15.406 1.027 5.135 4.108 9.244 9.244 12.325l180.766 108.871c9.244 5.135 20.542 3.081 26.704-6.162 2.054-3.081 6.162-10.271 13.352-23.623 6.162-12.325 14.379-27.731 24.65-45.192l44.164-82.166c10.271-18.487 16.433-29.785 20.542-35.948 4.108-8.217 6.162-18.487 6.162-29.785zM935.671 387.124c0 2.054 0 4.108 0 7.19 0 2.054 0 4.108-1.027 5.135 0 1.027 0 2.054-1.027 2.054 0 1.027-1.027 2.054-1.027 3.081-4.108 6.162-11.298 18.487-20.542 38.002l-44.164 82.166c-9.244 17.46-17.46 32.867-24.65 45.192 0 1.027-1.027 1.027-1.027 2.054s-1.027 2.054-1.027 2.054v0l-145.846-88.329c10.271-15.406 26.704-41.083 49.3-76.004 23.623-35.948 42.11-64.706 54.435-83.194 2.054-3.081 4.108-6.162 6.162-9.244 1.027-1.027 2.054-3.081 3.081-4.108 2.054-2.054 3.081-5.135 4.108-7.19 2.054-3.081 4.108-6.162 5.135-8.217 2.054-2.054 3.081-4.108 4.108-6.162 15.406 2.054 30.812 8.217 42.11 13.352 4.108 2.054 8.217 4.108 12.325 7.19 9.244 6.162 18.487 14.379 26.704 21.569 2.054 2.054 4.108 4.108 7.19 6.162v0c3.081 3.081 6.162 6.162 8.217 9.244s5.135 6.162 7.19 9.244c1.027 1.027 1.027 2.054 2.054 2.054l2.054 3.081c0 0 0 0 0 1.027s1.027 1.027 1.027 2.054c1.027 3.081 2.054 7.19 2.054 10.271 2.054 3.081 2.054 7.19 3.081 10.271zM900.75 277.227c1.027 1.027 2.054 3.081 2.054 4.108-2.054-1.027-4.108-2.054-6.162-4.108-5.135-3.081-10.271-6.162-15.406-9.244-1.027-1.027-3.081-2.054-6.162-3.081-19.515-9.244-40.056-14.379-61.625-15.406h-1.027c-6.162-1.027-12.325-2.054-18.487-3.081-12.325-2.054-25.677-3.081-38.002-4.108 0 0-1.027 0-2.054 0-19.515-2.054-39.029-3.081-56.489-3.081 0 0 0 0-1.027 0-9.244 0-17.46-1.027-25.677-1.027-3.081 0-5.135 0-8.217 0-5.135 0-10.271 2.054-14.379 6.162s-6.162 8.217-6.162 14.379l-64.706-103.735 65.733-104.762v3.081c0 5.135 2.054 10.271 6.162 14.379 1.027 1.027 2.054 2.054 3.081 2.054 3.081 2.054 7.19 3.081 11.298 3.081h106.816c6.162 0 13.352 3.081 19.515 9.244 2.054 2.054 4.108 4.108 7.19 6.162 3.081 3.081 7.19 7.19 10.271 11.298s7.19 9.244 10.271 13.352c9.244 14.379 18.487 28.758 25.677 44.164 8.217 15.406 18.487 38.002 30.812 64.706 5.135 11.298 10.271 21.569 14.379 30.812 0 0 1.027 1.027 1.027 1.027 2.054 5.135 6.162 12.325 11.298 23.623zM838.098 796.93c6.162-6.162 8.217-14.379 5.135-22.596l-85.248-193.091c-2.054-3.081-4.108-6.162-7.19-8.217s-8.217-3.081-12.325-3.081l-213.633 17.46c-8.217 1.027-15.406 7.19-17.46 15.406s2.054 17.46 9.244 21.569l40.056 23.623-44.164 61.625-123.25-185.902c-4.108-6.162-10.271-9.244-16.433-9.244-3.081 0-6.162 1.027-9.244 2.054l-179.739 99.627c-4.108 2.054-8.217 7.19-9.244 12.325s-1.027 10.271 2.054 15.406c2.054 3.081 10.271 16.433 24.65 40.056l24.65 41.083c11.298 18.487 20.542 33.894 29.785 48.273s16.433 26.704 22.596 36.975c6.162 10.271 10.271 17.46 12.325 20.542 6.162 10.271 15.406 18.487 26.704 23.623 8.217 4.108 19.515 7.19 34.921 10.271l5.135 2.054c25.677 7.19 47.246 13.352 60.598 13.352 19.515 0 56.489 1.027 115.033 1.027 58.544 1.027 100.654-1.027 128.385-4.108 33.894-4.108 55.462-14.379 65.733-32.867 2.054-3.081 5.135-8.217 9.244-17.46 5.135-9.244 11.298-18.487 17.46-29.785 6.162-10.271 12.325-19.515 16.433-26.704l45.192 26.704c7.19 7.19 16.433 6.162 22.596 0zM727.174 611.028l55.462 123.25-9.244-5.135c-4.108-3.081-10.271-3.081-15.406-2.054s-9.244 5.135-12.325 10.271c-2.054 3.081-4.108 8.217-8.217 14.379-3.081 5.135-7.19 11.298-11.298 19.515-2.054 2.054-3.081 5.135-5.135 8.217-3.081 5.135-7.19 11.298-10.271 16.433s-6.162 10.271-8.217 14.379-8.217 15.406-10.271 17.46c0 0-1.027 1.027-2.054 2.054 0 0-1.027 1.027-1.027 1.027-2.054 1.027-5.135 3.081-9.244 5.135-5.135 2.054-12.325 4.108-23.623 5.135-25.677 3.081-67.787 4.108-123.25 4.108-35.948 0-62.652-1.027-83.194-1.027 2.054-1.027 4.108-2.054 6.162-4.108 6.162-4.108 13.352-9.244 19.515-14.379 2.054-1.027 4.108-3.081 5.135-5.135 2.054-2.054 5.135-4.108 7.19-7.19 10.271-10.271 19.515-22.596 26.704-35.948 4.108-6.162 8.217-13.352 12.325-20.542l72.923-100.654c3.081-4.108 4.108-10.271 3.081-15.406 0-1.027-1.027-3.081-1.027-4.108s-1.027-2.054-1.027-2.054c0-1.027-1.027-1.027-1.027-2.054-1.027-1.027-1.027-1.027-2.054-2.054s-2.054-2.054-3.081-2.054l-6.162-4.108 138.656-13.352zM488.891 744.549c0 0 0 0 0 0 0 1.027-1.027 1.027-1.027 2.054l-5.135 9.244c-2.054 3.081-4.108 6.162-6.162 8.217-2.054 3.081-4.108 5.135-6.162 8.217-4.108 5.135-7.19 9.244-10.271 12.325-1.027 1.027-3.081 3.081-5.135 5.135-7.19 6.162-14.379 11.298-21.569 16.433s-14.379 8.217-20.542 10.271l-2.054 1.027h-1.027c-9.244 3.081-18.487 6.162-24.65 7.19v0c-1.027 0-2.054 0-3.081 0-8.217 0-23.623-1.027-32.867-2.054-4.108 0-7.19-1.027-9.244-1.027-3.081-1.027-5.135-2.054-7.19-3.081-4.108-2.054-7.19-4.108-9.244-8.217 0 0 0-1.027-1.027-1.027-2.054-3.081-6.162-10.271-11.298-19.515-3.081-5.135-6.162-11.298-10.271-17.46s-8.217-13.352-12.325-20.542c-2.054-3.081-4.108-7.19-6.162-11.298-5.135-7.19-9.244-15.406-14.379-23.623-2.054-4.108-5.135-8.217-8.217-13.352l-24.65-41.083c-5.135-9.244-10.271-16.433-13.352-22.596l145.846-81.139 121.196 185.902zM813.448 304.958c2.054-3.081 4.108-6.162 5.135-8.217-2.054 2.054-3.081 5.135-5.135 8.217-1.027 2.054-3.081 4.108-4.108 7.19 1.027-3.081 2.054-5.135 4.108-7.19zM800.096 325.499c2.054-3.081 4.108-6.162 6.162-9.244-2.054 2.054-4.108 6.162-6.162 9.244zM797.015 88.244c3.081 3.081 7.19 7.19 10.271 11.298-4.108-4.108-7.19-8.217-10.271-11.298zM756.959 242.306c13.352 1.027 25.677 2.054 38.002 4.108-12.325-1.027-24.65-3.081-38.002-4.108zM698.415 239.225c18.487 1.027 38.002 2.054 56.489 3.081-18.487-2.054-38.002-3.081-56.489-3.081zM671.711 238.198c8.217 0 16.433 0 25.677 1.027-8.217 0-17.46-1.027-25.677-1.027zM601.87 632.597c0-1.027-1.027-1.027-1.027-2.054 0 0 1.027 1.027 1.027 2.054zM271.149 70.783l211.579 2.054-2.054 181.793c-76.004 0-136.602 4.108-184.875 8.217h-2.054l-70.869 4.108h-5.135c-29.785 0-48.273 5.135-68.814 14.379-2.054 1.027-3.081 1.027-5.135 2.054s-3.081 1.027-5.135 2.054v0c0 0 0 0 0 0 1.027-2.054 2.054-4.108 4.108-6.162 9.244-15.406 17.46-31.84 27.731-48.273 7.19-13.352 13.352-23.623 17.46-30.812 1.027-3.081 3.081-5.135 4.108-7.19 1.027-1.027 1.027-2.054 2.054-3.081 2.054-3.081 3.081-6.162 3.081-7.19 7.19-14.379 13.352-27.731 19.515-39.029 6.162-12.325 13.352-23.623 20.542-35.948 7.19-11.298 14.379-20.542 21.569-27.731 7.19-8.217 11.298-9.244 12.325-9.244zM520.73 153.977l1.027-100.654c0-5.135-2.054-10.271-5.135-14.379s-8.217-6.162-13.352-6.162l-231.093-2.054c0 0 0 0 0 0-12.325 0-25.677 6.162-38.002 17.46-9.244 9.244-19.515 20.542-28.758 34.921-8.217 13.352-15.406 25.677-22.596 39.029-6.162 12.325-13.352 26.704-20.542 42.11 0 1.027-1.027 1.027-1.027 2.054s-2.054 4.108-3.081 7.19c-4.108 8.217-11.298 20.542-20.542 36.975-9.244 17.46-18.487 32.867-27.731 48.273s-15.406 27.731-20.542 36.975c-5.135 8.217-6.162 20.542-7.19 39.029 0 3.081 0 8.217 0 10.271-2.054 7.19-4.108 14.379-6.162 20.542-1.027 8.217-2.054 16.433-2.054 27.731 0 16.433 2.054 32.867 6.162 46.219s9.244 25.677 15.406 35.948c3.081 5.135 6.162 9.244 8.217 13.352l-43.137 25.677c-7.19 4.108-11.298 13.352-9.244 21.569s9.244 14.379 18.487 14.379l206.443 6.162c3.081 0 6.162 0 9.244-2.054 4.108-2.054 7.19-5.135 9.244-9.244l95.519-179.739c4.108-8.217 2.054-17.46-4.108-23.623s-15.406-7.19-23.623-3.081l-46.219 26.704c-3.081-3.081-6.162-7.19-10.271-11.298-5.135-5.135-9.244-11.298-14.379-16.433-5.135-6.162-6.162-9.244-7.19-10.271 0 0 0-1.027-1.027-1.027-3.081-5.135-3.081-8.217-3.081-9.244 0-4.108 1.027-5.135 2.054-6.162 5.135-3.081 13.352-8.217 18.487-11.298 51.354-4.108 117.087-8.217 199.254-8.217 0 0 0 0 0 0 5.135 0 10.271-2.054 13.352-5.135 4.108-4.108 6.162-8.217 6.162-14.379l1.027-118.114zM323.531 407.666l-57.517 108.871-126.331-4.108 5.135-3.081c2.054-1.027 4.108-3.081 5.135-5.135 1.027-1.027 2.054-3.081 2.054-4.108s1.027-1.027 1.027-2.054c0-1.027 1.027-3.081 1.027-5.135 0-1.027 0-2.054 0-3.081s0-1.027-1.027-2.054c0-1.027 0-1.027-1.027-2.054-1.027-4.108-4.108-7.19-7.19-9.244 0 0-1.027-1.027-4.108-5.135-2.054-2.054-6.162-7.19-11.298-17.46-1.027-2.054-2.054-4.108-3.081-6.162-3.081-6.162-6.162-13.352-8.217-21.569-1.027-2.054-1.027-5.135-2.054-7.19-2.054-8.217-3.081-17.46-2.054-26.704 0-2.054 0-4.108 0-6.162s0-3.081 0-5.135 1.027-6.162 1.027-9.244c0-2.054 1.027-4.108 1.027-6.162 1.027-2.054 1.027-4.108 2.054-7.19 6.162-11.298 25.677-32.867 44.164-41.083l4.108-2.054c16.433-7.19 33.894-10.271 54.435-11.298h4.108c6.162 0 12.325 0 19.515 0-1.027 4.108-2.054 8.217-2.054 12.325 0 9.244 3.081 18.487 8.217 28.758 2.054 5.135 6.162 10.271 11.298 17.46 5.135 6.162 9.244 11.298 14.379 17.46s10.271 11.298 14.379 15.406l8.217 8.217c6.162 8.217 15.406 9.244 24.65 4.108v0zM488.891 744.549c0 0 0 0 0 0v0zM470.403 772.28c2.054-2.054 4.108-5.135 6.162-8.217-3.081 3.081-4.108 6.162-6.162 8.217zM456.024 838.013c6.162-4.108 13.352-9.244 19.515-14.379-6.162 6.162-12.325 10.271-19.515 14.379zM193.091 191.979c1.027-1.027 1.027-2.054 2.054-3.081 0 0-1.027 1.027-2.054 3.081s-2.054 4.108-4.108 7.19c2.054-3.081 3.081-5.135 4.108-7.19zM154.062 493.941c0-1.027 0-2.054 0-3.081 0 1.027 0 2.054 0 3.081 0 2.054 0 3.081-1.027 5.135 0-2.054 1.027-4.108 1.027-5.135zM152.008 485.724c0 1.027 1.027 1.027 1.027 2.054 0 0 0-1.027-1.027-2.054zM149.954 505.239c1.027-1.027 2.054-3.081 2.054-4.108 0 1.027-1.027 3.081-2.054 4.108zM144.818 278.254c-1.027 2.054-2.054 4.108-4.108 6.162 2.054-2.054 3.081-4.108 4.108-6.162zM140.71 285.443v0c0-1.027 0 0 0 0v0zM126.331 448.749c-3.081-6.162-6.162-13.352-8.217-21.569 2.054 8.217 5.135 15.406 8.217 21.569zM115.033 372.745c0-2.054 1.027-4.108 1.027-6.162 0 2.054-1.027 4.108-1.027 6.162-1.027 3.081-1.027 6.162-1.027 9.244 0-4.108 0-6.162 1.027-9.244zM116.060 419.991c-2.054-8.217-2.054-17.46-2.054-26.704 0-2.054 0-4.108 0-6.162 0 2.054 0 4.108 0 6.162-1.027 9.244 0 18.487 2.054 26.704z" />
<glyph unicode="&#x33;" glyph-name="shop" horiz-adv-x="1080" d="M159.789 884.654c-24.756 0-49.512-15.754-58.514-38.259l-60.765-177.793c-15.754-45.011-6.752-90.022 24.756-126.031 13.503-15.754 31.508-27.007 51.763-31.508v-470.365c0-47.262 38.259-85.521 85.521-85.521h126.031c47.262 0 85.521 38.259 85.521 85.521v294.822c0 22.505 18.004 42.76 42.76 42.76h168.791c22.505 0 42.76-18.004 42.76-42.76v-294.822c0-47.262 38.259-85.521 85.521-85.521h123.78c47.262 0 85.521 38.259 85.521 85.521v470.365c22.505 6.752 40.51 18.004 56.264 36.009 29.257 33.758 36.009 81.020 20.255 121.53l-58.514 175.543c-9.002 22.505-33.758 40.51-58.514 40.51h-762.936zM159.789 844.144h760.686c9.002 0 15.754-4.501 20.255-13.503l58.514-175.543c11.253-27.007 6.752-56.264-13.503-78.769-18.004-22.505-45.011-31.508-74.268-24.756-27.007 4.501-56.264 38.259-56.264 60.765 0 6.752-4.501 13.503-11.253 18.004s-13.503 4.501-20.255 0c-6.752-4.501-11.253-11.253-11.253-18.004 0-11.253-6.752-27.007-20.255-38.259-13.503-13.503-36.009-22.505-54.013-24.756-38.259-2.251-78.769 31.508-78.769 63.015 0 6.752-4.501 13.503-11.253 18.004s-13.503 4.501-20.255 0c-6.752-4.501-11.253-11.253-11.253-18.004 0-29.257-40.51-63.015-76.519-63.015-38.259 0-76.519 36.009-76.519 63.015 0 6.752-4.501 13.503-11.253 18.004s-13.503 4.501-20.255 0c-6.752-4.501-11.253-11.253-11.253-18.004 0-24.756-40.51-63.015-76.519-63.015-20.255 0-40.51 9.002-56.264 22.505-9.002 9.002-18.004 18.004-18.004 29.257 0 4.501 0 6.752 0 9.002 0 6.752-4.501 13.503-11.253 18.004s-13.503 4.501-20.255 0c-6.752-4.501-11.253-11.253-11.253-18.004 0-24.756-31.508-56.264-56.264-60.765-27.007-6.752-56.264 4.501-72.018 22.505-22.505 24.756-27.007 49.512-15.754 83.27l58.514 175.543c2.251 6.752 9.002 13.503 18.004 13.503zM443.358 558.324c20.255-31.508 56.264-54.013 96.774-54.013s76.519 20.255 96.774 51.763c22.505-31.508 60.765-54.013 101.275-51.763 31.508 2.251 60.765 15.754 81.020 36.009 4.501 4.501 9.002 9.002 13.503 13.503 15.754-22.505 40.51-40.51 69.767-47.262 4.501 0 11.253-2.251 15.754-2.251v-465.864c0-24.756-18.004-42.76-42.76-42.76h-126.031c-22.505 0-42.76 18.004-42.76 42.76v297.073c0 47.262-38.259 85.521-85.521 85.521h-168.791c-47.262 0-85.521-38.259-85.521-85.521v-294.822c0-22.505-18.004-42.76-42.76-42.76h-121.53c-24.756 0-42.76 18.004-42.76 42.76v465.864c6.752 0 11.253 0 18.004 2.251 27.007 6.752 49.512 22.505 67.516 47.262 4.501-6.752 9.002-11.253 15.754-15.754 22.505-20.255 51.763-33.758 85.521-33.758 38.259 0 74.268 20.255 96.774 51.763zM477.116 252.249c-4.501 0-6.752 0-11.253-2.251-6.752-4.501-11.253-11.253-11.253-18.004v-63.015c0-6.752 4.501-13.503 11.253-18.004s13.503-4.501 20.255 0c6.752 4.501 11.253 11.253 11.253 18.004v63.015c0 6.752-4.501 13.503-11.253 18.004-2.251 2.251-6.752 2.251-9.002 2.251z" />
<glyph unicode="&#x34;" glyph-name="target" horiz-adv-x="1014" d="M925.301 106.581l-61.687 61.687c50.72 69.912 80.878 156.273 80.878 249.489s-31.529 179.577-82.249 249.489l63.058 63.058c26.046 24.675 27.416 65.799 2.742 91.845-15.079 15.079-35.641 23.304-57.574 20.562-13.708-2.742-27.416-8.225-38.383-19.191l-63.058-63.058c-69.912 50.72-154.902 82.249-248.118 82.249s-178.206-31.529-248.118-82.249l-64.428 64.428c-13.708 13.708-32.9 21.933-53.462 19.191-35.641-4.112-63.058-35.641-58.945-71.282 1.371-15.079 8.225-30.158 20.562-41.124l63.058-63.058c-52.091-69.912-82.249-156.273-82.249-249.489-1.371-93.216 30.158-179.577 80.878-250.859l-61.687-61.687c-26.046-24.675-27.416-65.799-2.742-91.845s65.799-27.416 91.845-2.742c0 0 1.371 1.371 1.371 1.371l63.058 63.058c69.912-52.091 156.273-82.249 249.489-82.249s179.577 31.529 249.489 82.249l63.058-63.058c24.675-26.046 65.799-26.046 91.845-1.371s26.046 65.799 1.371 91.845c1.371 1.371 0 2.742 0 2.742zM520.91 125.773c-163.127 0-293.355 130.228-293.355 293.355s130.228 293.355 293.355 293.355 293.355-130.228 293.355-293.355-130.228-293.355-293.355-293.355z" />
<glyph unicode="&#x35;" glyph-name="truck" horiz-adv-x="1457" d="M1372.186 473.563l-120.773 44.969-104.070 196.577c-3.854 10.279-14.133 16.703-26.981 16.703h-174.735v114.349c0 16.703-12.848 29.551-29.551 29.551h-824.853c-16.703 0-29.551-12.848-29.551-29.551v-605.149c0-16.703 12.848-29.551 29.551-29.551h100.216c-16.703-19.272-26.981-42.399-30.836-68.095h-69.38c-16.703 0-29.551-12.848-29.551-29.551s12.848-29.551 29.551-29.551h69.38c12.848-71.95 75.804-124.627 152.893-124.627 74.519 0 137.476 53.962 152.893 124.627h512.642c12.848-71.95 75.804-124.627 152.893-124.627 74.519 0 137.476 53.962 152.893 124.627h51.393c32.12 0 59.102 26.981 59.102 59.102v301.932c-3.854 14.133-11.563 24.412-23.127 28.266zM120.773 817.894h765.752v-546.048h-765.752v546.048zM917.36 212.745h91.222c-16.703-19.272-26.981-42.399-30.836-68.095h-513.927c-3.854 24.412-16.703 48.823-30.836 68.095h484.376zM312.211 20.022c-52.678 0-95.077 42.399-95.077 95.077s42.399 95.077 95.077 95.077 95.077-42.399 95.077-95.077c1.285-52.678-42.399-95.077-95.077-95.077zM1126.785 20.022c-52.678 0-95.077 42.399-95.077 95.077s42.399 95.077 95.077 95.077 95.077-42.399 95.077-95.077c2.57-52.678-39.829-95.077-95.077-95.077zM1331.072 144.649h-51.393c-3.854 24.412-16.703 48.823-30.836 68.095h83.513l-1.285-68.095zM946.911 270.562v402.148h158.033l101.501-190.153c2.57-6.424 8.994-11.563 14.133-12.848l111.779-42.399v-154.178h-385.445v-2.57z" />
<glyph unicode="&#x36;" glyph-name="wheel" horiz-adv-x="985" d="M498.215 600.944c-99.446 0-180.185-80.738-180.185-180.185s80.738-180.185 180.185-180.185 180.185 80.738 180.185 180.185c0 99.446-80.738 180.185-180.185 180.185zM498.215 319.344c-56.123 0-101.415 45.292-101.415 101.415s45.292 101.415 101.415 101.415c56.123 0 101.415-45.292 101.415-101.415s-45.292-101.415-101.415-101.415zM889.108 342.975l-35.446 29.538c3.938 32.492 3.938 64.985 0 96.492l35.446 29.538c36.431 30.523 45.292 81.723 21.662 123.077l-31.508 55.138c-23.631 41.354-72.862 59.077-117.169 42.338l-43.323-14.769c-25.6 19.692-54.154 36.431-83.692 48.246l-7.877 45.292c-7.877 46.277-48.246 80.738-95.508 79.754h-64.985c-47.262 0-87.631-33.477-95.508-79.754l-7.877-45.292c-30.523-11.815-58.092-28.554-83.692-48.246l-43.323 15.754c-44.308 15.754-93.538-1.969-117.169-42.338l-31.508-55.138c-23.631-40.369-14.769-92.554 21.662-123.077l35.446-29.538c-3.938-32.492-3.938-64.985 0-96.492l-35.446-29.538c-35.446-30.523-44.308-81.723-20.677-122.092l31.508-55.138c23.631-41.354 72.862-59.077 117.169-42.338l43.323 15.754c25.6-19.692 54.154-36.431 83.692-48.246l7.877-45.292c7.877-46.277 48.246-80.738 95.508-79.754h64c47.262 0 87.631 33.477 95.508 79.754l7.877 45.292c30.523 11.815 58.092 28.554 83.692 48.246l43.323-15.754c44.308-15.754 93.538 1.969 117.169 42.338l31.508 55.138c23.631 39.385 13.785 90.585-21.662 121.108zM772.923 477.867c7.877-37.415 7.877-75.815 0-112.246-2.954-13.785 1.969-28.554 12.8-37.415l52.185-44.308c6.892-5.908 8.862-15.754 3.938-23.631l-31.508-55.138c-4.923-7.877-13.785-10.831-22.646-7.877l-64 22.646c-13.785 4.923-28.554 1.969-39.385-7.877-28.554-25.6-61.046-44.308-97.477-56.123-13.785-4.923-23.631-15.754-26.585-30.523l-11.815-67.938c-0.985-8.862-8.862-15.754-18.708-15.754h-64c-8.862 0-16.738 6.892-18.708 15.754l-11.815 67.938c-1.969 14.769-12.8 26.585-26.585 30.523-35.446 11.815-68.923 31.508-97.477 56.123-10.831 9.846-25.6 12.8-39.385 7.877l-64.985-23.631c-8.862-2.954-17.723 0-22.646 7.877l-28.554 55.138c-3.938 7.877-1.969 17.723 4.923 23.631l52.185 44.308c10.831 8.862 15.754 23.631 12.8 37.415-7.877 37.415-7.877 75.815 0 112.246 2.954 13.785-1.969 28.554-12.8 37.415l-52.185 44.308c-6.892 5.908-8.862 15.754-3.938 23.631l31.508 55.138c4.923 7.877 13.785 10.831 22.646 7.877l64.985-23.631c13.785-4.923 28.554-1.969 39.385 7.877 28.554 25.6 61.046 44.308 97.477 56.123 13.785 4.923 23.631 15.754 26.585 30.523l10.831 67.938c0.985 8.862 8.862 15.754 18.708 15.754h64c8.862 0 16.738-6.892 18.708-15.754l11.815-67.938c2.954-13.785 12.8-25.6 26.585-30.523 35.446-11.815 68.923-31.508 97.477-56.123 10.831-9.846 25.6-12.8 39.385-7.877l64.985 23.631c8.862 2.954 17.723 0 22.646-7.877l31.508-55.138c4.923-7.877 2.954-17.723-3.938-23.631l-56.123-43.323c-10.831-8.862-15.754-23.631-12.8-37.415z" />
<glyph unicode="&#x37;" glyph-name="woman" horiz-adv-x="948" d="M822.044 211.437v321.422c-2.844 191.526-161.185 345.126-353.659 342.281-187.733-3.793-338.489-154.548-342.281-342.281v-321.422c-34.133-53.096-53.096-114.726-53.096-178.252v-27.496c0-18.015 15.17-33.185 33.185-33.185h734.815c18.015 0 33.185 15.17 33.185 33.185v27.496c0 63.526-18.015 125.156-52.148 178.252zM474.074 813.511c155.496 0 280.652-126.104 281.6-281.6v-246.519c-34.133 28.444-73.956 49.304-116.622 61.63v32.237c21.807 31.289 35.081 68.267 36.978 106.193l5.689 82.489c1.896 24.652-11.378 47.407-33.185 58.785-19.911 10.43-36.030 27.496-45.511 47.407l-22.756 49.304c-7.585 17.067-27.496 23.704-43.615 16.119-2.844-0.948-5.689-2.844-8.533-5.689l-96.711-88.178c-15.17-13.274-33.185-24.652-52.148-31.289l-71.111-25.6c-26.548-9.481-43.615-36.978-39.822-64.474l4.741-39.822c1.896-37.926 15.17-74.904 36.978-106.193v-31.289c-42.667-12.326-82.489-33.185-116.622-61.63v246.519c0 156.444 125.156 281.6 280.652 281.6zM608.711 489.245c-2.844-72.059-62.578-128.948-134.637-128.948v0c-72.059 0-131.793 56.889-134.637 128.948 0 0.948 0 1.896 0 1.896l-4.741 36.978 67.319 24.652c27.496 9.481 52.148 24.652 73.956 43.615l62.578 56.889 3.793-8.533c15.17-32.237 40.77-59.733 72.059-76.8l-5.689-78.696zM376.415 317.63v1.896c60.681-34.133 135.585-34.133 196.267 0v-1.896c0-54.044-43.615-97.659-97.659-97.659-54.993-0.948-98.607 43.615-98.607 97.659v0 0 0zM140.326 39.823c2.844 108.089 72.059 203.852 174.459 239.881 20.859-88.178 109.037-143.17 197.215-122.311 60.681 14.222 108.089 61.63 122.311 122.311 102.4-36.030 171.615-131.793 174.459-239.881h-668.444z" />
<glyph unicode="&#x41;" glyph-name="adobe" horiz-adv-x="1222" d="M1001.596 282.358c-2.636 40.855-71.166 65.894-71.166 67.212-26.358 9.225-55.351 14.497-86.981 14.497-34.265 0-72.484-5.272-119.928-15.815-42.172 30.311-80.391 68.53-108.067 110.703-11.861 18.45-23.722 36.901-32.947 55.351 23.722 55.351 44.808 115.974 40.855 183.187-2.636 54.033-27.676 89.616-60.623 89.616-22.404 0-42.172-17.133-57.987-50.080-27.676-59.305-21.086-134.425 22.404-225.359-15.815-36.901-30.311-73.802-43.49-110.703-17.133-44.808-35.583-92.252-55.351-137.060-56.669-22.404-102.795-48.762-141.014-83.027-25.040-21.086-55.351-55.351-57.987-89.616-1.318-15.815 5.272-31.629 15.815-43.49 11.861-13.179 27.676-19.768 43.49-19.768 55.351 0 108.067 76.438 118.61 90.934 19.768 30.311 39.537 64.577 57.987 104.113 47.444 17.133 96.206 28.994 144.968 42.172l17.133 3.954c13.179 3.954 26.358 6.589 40.855 10.543s30.311 7.907 44.808 11.861c50.080-31.629 102.795-52.716 155.511-59.305 43.49-6.589 83.027-2.636 109.385 10.543 23.722 13.179 25.040 32.947 23.722 39.537zM365.055 147.933c-22.404-32.947-57.987-68.53-76.438-68.53-1.318 0-3.954 0-6.589 3.954-2.636 2.636-2.636 3.954-2.636 5.272 0 11.861 17.133 34.265 39.537 54.033 21.086 18.45 44.808 34.265 72.484 48.762-9.225-15.815-17.133-30.311-26.358-43.49zM549.56 714.626c5.272 10.543 9.225 15.815 11.861 18.45 3.954-6.589 9.225-19.768 10.543-39.537 2.636-39.537-6.589-77.755-18.45-114.656-15.815 44.808-22.404 94.888-3.954 135.743zM653.673 329.802c-13.179-3.954-26.358-7.907-39.537-10.543l-17.133-3.954c-34.265-9.225-69.848-17.133-105.431-28.994 13.179 31.629 25.040 64.577 38.219 96.206 9.225 23.722 18.45 47.444 27.676 71.166 5.272-7.907 9.225-15.815 14.497-23.722 23.722-35.583 54.033-69.848 88.299-98.842-1.318-1.318-3.954-1.318-6.589-1.318zM875.079 282.358c-28.994 3.954-56.669 13.179-85.663 25.040 50.080 7.907 89.616 5.272 123.882-6.589 7.907-2.636 21.086-10.543 30.311-17.133-17.133-3.954-42.172-5.272-68.53-1.318z" />
<glyph unicode="&#x43;" glyph-name="cart" horiz-adv-x="1219" d="M1004.495 231.619h-582.705c-21.943 0-34.133 12.19-43.886 29.257l-112.152 402.286c-4.876 12.19 0 26.819 9.752 39.010 9.752 9.752 21.943 17.067 34.133 17.067h807.010c12.19 0 26.819-4.876 34.133-17.067 9.752-9.752 12.19-26.819 9.752-39.010-39.010-134.095-73.143-268.19-112.152-402.286-4.876-17.067-21.943-29.257-43.886-29.257zM453.486 319.391h516.876c29.257 104.838 56.076 212.114 87.771 316.952h-692.419l87.771-316.952zM421.79 231.619c-17.067 0-34.133 12.19-43.886 29.257l-141.41 529.067-134.095 4.876c-26.819 0-43.886 21.943-43.886 43.886 0 26.819 21.943 43.886 43.886 43.886l165.79-9.752c17.067 0 34.133-12.19 39.010-29.257l151.162-558.324c4.876-21.943-9.752-48.762-29.257-51.2 2.438-2.438-2.438-2.438-7.314-2.438zM526.629-29.257c-65.829 0-121.905 51.2-121.905 121.905 0 65.829 51.2 117.029 121.905 117.029 65.829 0 121.905-51.2 121.905-117.029-4.876-68.267-56.076-121.905-121.905-121.905zM526.629 124.343c-17.067 0-34.133-12.19-34.133-34.133 0-17.067 12.19-34.133 34.133-34.133 17.067 0 34.133 12.19 34.133 34.133-2.438 19.505-17.067 34.133-34.133 34.133zM887.467-29.257c-65.829 0-121.905 51.2-121.905 121.905 0 65.829 51.2 117.029 121.905 117.029 65.829 0 121.905-51.2 121.905-117.029-2.438-68.267-58.514-121.905-121.905-121.905zM887.467 124.343c-17.067 0-34.133-12.19-34.133-34.133 0-17.067 12.19-34.133 34.133-34.133 17.067 0 34.133 12.19 34.133 34.133s-17.067 34.133-34.133 34.133z" />
<glyph unicode="&#x44;" glyph-name="download" horiz-adv-x="861" d="M402.716 2.438c5.163-6.884 13.768-10.326 22.373-10.326s17.21 3.442 22.373 10.326l321.829 395.832c5.163 5.163 6.884 12.047 6.884 18.931 0 15.489-12.047 27.536-27.536 27.536v0h-206.521v394.111c0 15.489-12.047 27.536-27.536 27.536h-180.706c-15.489 0-27.536-12.047-27.536-27.536v-394.111h-203.079c-10.326 0-20.652-6.884-25.815-15.489-5.163-10.326-3.442-22.373 3.442-29.257l321.829-397.553z" />
<glyph unicode="&#x45;" glyph-name="envelope" horiz-adv-x="1360" d="M1166.137 854.607h-956.752c-55.021 0-99.343-44.322-99.343-99.343v-655.666c0-55.021 44.322-100.872 99.343-100.872h956.752c55.021 0 100.872 44.322 100.872 100.872v655.666c-1.528 53.493-45.851 99.343-100.872 99.343zM832.955 460.291l374.448 298.030c0-1.528 0-1.528 0-3.057v-654.137l-374.448 359.164zM168.119 101.127v654.137c0 1.528 0 1.528 0 3.057l372.919-298.030-372.919-359.164zM213.97 796.53h947.582l-473.791-379.033-473.791 379.033zM207.857 56.804h-1.528l379.033 366.806 82.531-65.719c4.585-3.057 12.227-7.642 18.34-7.642 4.585 0 12.227 1.528 18.34 7.642l82.531 65.719 379.033-366.806h-958.281z" />
<glyph unicode="&#x47;" glyph-name="people" horiz-adv-x="1177" d="M907.476 542.014c10.593 0 18.832 1.177 29.425 2.354 35.31 7.062 64.736 29.425 83.568 58.851 18.832 30.602 24.717 65.913 17.655 100.046-16.478 71.798-87.099 116.524-158.897 100.046-35.31-7.062-64.736-29.425-83.568-58.851-18.832-30.602-24.717-65.913-17.655-100.046 12.947-60.028 68.267-102.4 129.471-102.4zM848.625 713.858c10.593 16.478 25.894 28.248 44.726 31.779 5.885 1.177 10.593 1.177 16.478 1.177 31.779 0 61.205-22.363 69.444-55.32v0c4.708-18.832 1.177-37.664-8.239-54.143-10.593-16.478-25.894-28.248-44.726-31.779-37.664-8.239-75.329 16.478-84.745 54.143-8.239 18.832-3.531 37.664 7.062 54.143zM1002.814 491.403h-175.375c-17.655 0-32.956-4.708-48.257-11.77-3.531 52.966-49.434 94.161-104.754 94.161h-174.198c-52.966 0-95.338-37.664-103.577-87.099-14.124 7.062-30.602 11.77-47.080 11.77h-175.375c-58.851 0-104.754-47.080-104.754-104.754v-184.791c0-47.080 30.602-87.099 74.152-100.046v-97.692c0-17.655 14.124-30.602 30.602-30.602s30.602 14.124 30.602 30.602v155.366h-30.602c-23.54 0-42.372 18.832-42.372 42.372v184.791c0 23.54 18.832 42.372 42.372 42.372h175.375c23.54 0 42.372-18.832 42.372-42.372v-184.791c0-23.54-18.832-42.372-42.372-42.372h-30.602v-156.543c0-17.655 14.124-30.602 30.602-30.602 17.655 0 30.602 14.124 30.602 30.602v97.692c14.124 4.708 29.425 12.947 41.195 23.54 12.947-14.124 29.425-25.894 48.257-31.779v-97.692c0-17.655 14.124-30.602 30.602-30.602 17.655 0 30.602 14.124 30.602 30.602v156.543h-30.602c-23.54 0-42.372 18.832-42.372 42.372v268.359c0 23.54 18.832 42.372 42.372 42.372h175.375c23.54 0 42.372-18.832 42.372-42.372v-267.182c0-23.54-18.832-42.372-42.372-42.372h-30.602v-156.543c0-17.655 14.124-30.602 30.602-30.602 17.655 0 30.602 14.124 30.602 30.602v97.692c17.655 5.885 31.779 14.124 44.726 28.248 11.77-12.947 28.248-23.54 44.726-28.248v-97.692c0-17.655 14.124-30.602 30.602-30.602s30.602 14.124 30.602 30.602v155.366h-30.602c-23.54 0-42.372 18.832-42.372 42.372v184.791c0 23.54 18.832 42.372 42.372 42.372h175.375c23.54 0 42.372-18.832 42.372-42.372v-183.614c0-23.54-18.832-42.372-42.372-42.372h-30.602v-156.543c0-17.655 14.124-30.602 30.602-30.602s30.602 14.124 30.602 30.602v97.692c42.372 12.947 74.152 54.143 74.152 100.046v184.791c1.177 57.674-44.726 105.931-103.577 105.931zM333.094 796.249c-30.602 18.832-65.913 24.717-100.046 17.655s-64.736-29.425-83.568-58.851c-18.832-30.602-24.717-65.913-17.655-100.046 7.062-35.31 29.425-64.736 58.851-83.568 22.363-12.947 47.080-20.009 71.798-20.009 10.593 0 20.009 1.177 29.425 2.354 71.798 16.478 116.524 87.099 100.046 158.897-7.062 35.31-29.425 63.559-58.851 83.568zM277.775 613.812c-18.832-4.708-37.664-2.354-54.143 8.239s-28.248 25.894-31.779 44.726c-4.708 18.832-1.177 37.664 8.239 54.143 10.593 16.478 25.894 28.248 44.726 31.779 5.885 1.177 10.593 1.177 16.478 1.177 12.947 0 25.894-4.708 37.664-11.77 16.478-10.593 28.248-25.894 31.779-44.726 8.239-35.31-15.301-75.329-52.966-83.568zM557.903 890.41c-71.798-16.478-116.524-87.099-100.046-158.897 14.124-61.205 68.267-103.577 129.471-103.577 10.593 0 18.832 1.177 29.425 2.354 71.798 16.478 116.524 87.099 100.046 158.897-7.062 35.31-29.425 64.736-58.851 83.568-28.248 18.832-64.736 24.717-100.046 17.655zM626.17 820.966c16.478-10.593 28.248-25.894 31.779-44.726 8.239-37.664-16.478-75.329-54.143-84.745-37.664-8.239-75.329 16.478-84.745 54.143-8.239 37.664 16.478 75.329 54.143 84.745 5.885 1.177 10.593 1.177 16.478 1.177 11.77-1.177 24.717-3.531 36.487-10.593z" />
<glyph unicode="&#x4c;" glyph-name="arrow_l" horiz-adv-x="632" d="M168.138 429.195l386.844 388.109c16.435 16.435 16.435 41.719 0 58.153s-41.719 16.435-58.153 0l-415.921-417.185c-16.435-16.435-16.435-41.719 0-58.153l418.449-418.449c7.585-7.585 18.963-11.378 29.077-11.378s21.491 3.793 29.077 11.378c16.435 16.435 16.435 41.719 0 58.153l-389.373 389.373z" />
<glyph unicode="&#x4e;" glyph-name="cloud" horiz-adv-x="1222" d="M991.053 462.909c0 3.954 0 7.907 0 11.861 0 151.557-122.564 274.121-274.121 274.121-106.749 0-199.001-60.623-243.81-150.239-19.768 7.907-40.855 13.179-64.577 13.179-86.981 0-158.147-64.577-168.69-148.921-80.391-27.676-139.696-102.795-139.696-193.73 0-113.338 92.252-205.591 205.591-205.591h616.772c113.338 0 205.591 92.252 205.591 205.591 0 90.934-56.669 166.054-137.060 193.73z" />
<glyph unicode="&#x50;" glyph-name="paper_01" horiz-adv-x="1356" d="M1178.321 860.785h-755.741c-62.017 0-113.938-50.479-113.938-113.938v-226.434h-188.935c-20.192 0-37.499-17.307-37.499-37.499v-340.372c0-83.651 67.786-151.437 151.437-151.437 12.98 0 25.961 2.885 38.941 5.769 12.98-2.885 24.518-5.769 37.499-5.769h832.18c83.651 0 151.437 67.786 151.437 151.437v605.746c-1.442 62.017-51.921 112.496-115.38 112.496zM157.206 142.543v302.873h151.437v-302.873c0-7.211-1.442-14.423-2.885-21.634 0-1.442 0-2.885-1.442-2.885-7.211-21.634-24.518-38.941-46.152-46.152 0 0 0 0 0 0-7.211-2.885-15.865-4.327-24.518-4.327-41.825 0-76.439 33.172-76.439 74.997zM1217.262 142.543c0-41.825-34.614-74.997-74.997-74.997h-778.817c2.885 4.327 4.327 7.211 5.769 11.538 1.442 2.885 2.885 5.769 4.327 8.654 2.885 7.211 4.327 14.423 7.211 21.634 0 2.885 1.442 4.327 1.442 7.211 1.442 8.654 2.885 17.307 2.885 25.961v605.746c0 20.192 17.307 37.499 37.499 37.499h755.741c20.192 0 37.499-17.307 37.499-37.499v-605.746zM1065.825 559.354h-454.31c-20.192 0-37.499 17.307-37.499 37.499s17.307 37.499 37.499 37.499h454.31c21.634 0 37.499-17.307 37.499-37.499 0-21.634-17.307-37.499-37.499-37.499zM1065.825 370.419h-454.31c-20.192 0-37.499 17.307-37.499 37.499 0 21.634 17.307 37.499 37.499 37.499h454.31c21.634 0 37.499-17.307 37.499-37.499 0-21.634-17.307-37.499-37.499-37.499zM1065.825 180.042h-454.31c-20.192 0-37.499 17.307-37.499 37.499 0 21.634 17.307 37.499 37.499 37.499h454.31c21.634 0 37.499-17.307 37.499-37.499s-17.307-37.499-37.499-37.499z" />
<glyph unicode="&#x52;" glyph-name="arrow_r" horiz-adv-x="632" d="M470.281 427.931l-388.109-388.109c-16.435-16.435-16.435-41.719 0-58.153s41.719-16.435 58.153 0l415.921 415.921c16.435 16.435 16.435 41.719 0 58.153l-417.185 419.714c-7.585 7.585-18.963 11.378-29.077 11.378s-21.491-3.793-29.077-11.378c-16.435-16.435-16.435-41.719 0-58.153l389.373-389.373z" />
<glyph unicode="&#x55;" glyph-name="chupete" d="M488.448 306.859l-5.12-24.576c27.648-72.704 9.216-155.648-45.056-210.944-37.888-37.888-88.064-58.368-140.288-58.368s-103.424 20.48-140.288 58.368c-37.888 37.888-58.368 88.064-58.368 140.288 0 53.248 20.48 103.424 58.368 140.288 36.864 38.912 88.064 58.368 139.264 58.368 23.552 0 47.104-4.096 69.632-12.288l24.576 5.12 29.696 28.672c-12.288 10.24-24.576 19.456-36.864 29.696l-14.336-14.336c-86.016 26.624-181.248 3.072-245.76-61.44-46.080-46.080-71.68-108.544-71.68-174.080s25.6-126.976 71.68-174.080c46.080-46.080 108.544-71.68 174.080-71.68s126.976 25.6 174.080 71.68c64.512 64.512 88.064 159.744 61.44 245.76l14.336 15.36c-9.216 12.288-19.456 24.576-29.696 36.864l-29.696-28.672zM364.544 97.963c-40.96-27.648-94.208-27.648-135.168 0-6.144 4.096-12.288 9.216-18.432 15.36-8.192 8.192-21.504 8.192-29.696 0s-8.192-21.504 0-29.696c31.744-31.744 73.728-48.128 115.712-48.128s83.968 16.384 115.712 48.128c8.192 8.192 8.192 21.504 0 29.696s-21.504 8.192-29.696 0c-6.144-6.144-12.288-11.264-18.432-15.36zM702.464 887.467c-69.632 4.096-133.12-20.48-180.224-66.56-47.104-47.104-70.656-110.592-66.56-180.224 0-9.216 1.024-17.408 3.072-25.6-40.96 28.672-83.968 54.272-129.024 75.776-21.504 10.24-45.056 12.288-66.56 4.096-18.432-7.168-32.768-20.48-38.912-37.888l-7.168-17.408c-14.336-36.864 3.072-79.872 39.936-98.304 45.056-22.528 88.064-49.152 128-78.848 12.288-9.216 24.576-19.456 36.864-29.696 34.816-29.696 67.584-61.44 96.256-96.256 10.24-12.288 19.456-24.576 29.696-36.864 29.696-39.936 56.32-82.944 78.848-128 13.312-27.648 41.984-45.056 70.656-45.056 9.216 0 18.432 2.048 27.648 5.12l17.408 7.168c17.408 7.168 30.72 21.504 37.888 39.936 8.192 20.48 7.168 45.056-4.096 66.56-22.528 45.056-48.128 88.064-75.776 129.024 8.192-1.024 17.408-2.048 25.6-3.072 5.12 0 9.216 0 14.336 0 64.512 0 122.88 23.552 165.888 67.584 96.256 96.256 88.064 260.096-17.408 365.568-52.224 49.152-117.76 78.848-186.368 82.944zM733.184 223.915c5.12-9.216 5.12-20.48 2.048-28.672-2.048-6.144-6.144-10.24-12.288-13.312l-16.384-7.168c-13.312-5.12-30.72 2.048-37.888 16.384-83.968 168.96-222.208 308.224-392.192 391.168-15.36 7.168-22.528 24.576-17.408 37.888l7.168 17.408c2.048 5.12 6.144 9.216 12.288 11.264 4.096 1.024 7.168 2.048 11.264 2.048 6.144 0 11.264-1.024 17.408-4.096v0c185.344-89.088 335.872-239.616 425.984-422.912zM872.448 469.675c-36.864-36.864-89.088-56.32-144.384-53.248-25.6 1.024-51.2 7.168-75.776 17.408-39.936 48.128-83.968 92.16-132.096 132.096-10.24 24.576-16.384 50.176-17.408 75.776-3.072 56.32 15.36 107.52 53.248 144.384 34.816 34.816 81.92 53.248 133.12 53.248 4.096 0 7.168 0 11.264 0 57.344-3.072 111.616-28.672 154.624-70.656 87.040-87.040 95.232-221.184 17.408-299.008zM708.608 738.987c-30.72 2.048-58.368-7.168-77.824-26.624-39.936-39.936-35.84-110.592 10.24-156.672 24.576-24.576 57.344-37.888 88.064-37.888 25.6 0 50.176 9.216 68.608 27.648 39.936 39.936 35.84 110.592-10.24 156.672-22.528 21.504-50.176 34.816-78.848 36.864zM763.904 578.219c-21.504-21.504-62.464-17.408-90.112 10.24s-32.768 67.584-10.24 90.112c9.216 9.216 21.504 13.312 35.84 13.312 2.048 0 3.072 0 5.12 0 17.408-1.024 34.816-10.24 49.152-23.552 27.648-27.648 32.768-67.584 10.24-90.112z" />
<glyph unicode="&#x58;" glyph-name="dropbox" horiz-adv-x="1222" d="M778.873 368.021l-164.736 76.438 328.154 152.875 164.736-76.438-164.736-76.438-163.418-76.438zM943.609 750.209l-164.736 77.755-164.736-76.438 328.154-152.875 164.736 76.438-163.418 75.12zM450.718 520.896l-164.736 76.438-164.736-76.438 328.154-152.875 164.736 76.438-163.418 76.438zM450.718 673.771l164.736 76.438-164.736 77.755-329.472-154.193 164.736-76.438 164.736 76.438zM943.609 399.65l-164.736-76.438-17.133 7.907-147.604 68.53-164.736-76.438-17.133 7.907-147.604 68.53v-239.856l328.154-171.326 328.154 171.326v239.856z" />
<glyph unicode="&#x64;" glyph-name="drive" horiz-adv-x="1222" d="M793.369 822.693l296.525-507.387h-316.293l-296.525 507.387zM1089.894 269.179l-162.1-278.075h-589.097l159.465 278.075zM594.368 527.486l-125.199-217.452c-5.272-3.954-7.907-9.225-9.225-15.815l-162.1-279.393-158.147 272.803 296.525 512.659c92.252-159.465 154.193-264.896 158.147-272.803z" />
<glyph unicode="&#x67;" glyph-name="plug" horiz-adv-x="960" d="M73.897 488.568v189.061c0 16.315 12.476 28.791 28.791 28.791v0h76.776v140.116c0 16.315 12.476 28.791 28.791 28.791s28.791-12.476 28.791-28.791v-139.157h158.351v139.157c0 16.315 12.476 28.791 28.791 28.791s28.791-12.476 28.791-28.791v-139.157h76.776c16.315 0 28.791-12.476 28.791-28.791v-190.021c0-119.003-92.131-218.812-211.134-228.409 0-11.516-0.96-44.146 0-138.197 1.919-54.703 47.025-97.889 102.688-95.97 52.784 1.919 94.051 44.146 95.97 95.97v13.436c0 86.373 70.058 156.431 157.391 156.431h155.471c16.315 0 28.791-12.476 28.791-28.791s-12.476-28.791-28.791-28.791h-156.431c-54.703 0-98.849-44.146-98.849-98.849v-12.476c-1.919-86.373-73.897-155.471-160.27-153.552-83.494 1.919-150.673 69.098-153.552 152.592 0 84.454 0 120.922 0 138.197-120.922 7.678-215.933 107.486-215.933 228.409zM131.479 488.568c0-94.051 76.776-170.827 170.827-170.827h26.872c94.051 0 170.827 76.776 170.827 170.827v160.27h-368.525v-160.27z" />
<glyph unicode="&#x69;" glyph-name="lights" horiz-adv-x="974" d="M249.718 804.53c-7.345 50.639-47.547 92.388-96.64 98.186-3.092 0-5.798 0-8.891 0-4.639 0-7.345 0-10.437 0-51.026-5.798-91.228-47.547-95.481-98.186-3.092-34.404 8.891-68.421 32.858-92.388 8.504-8.504 14.689-18.555 18.555-28.606-0.387-1.16-0.773-2.706-0.773-4.252v-52.186c1.546-7.345 7.345-13.53 13.53-13.53h4.639l5.798-13.53 1.546-1.546c4.639-7.345 13.53-11.983 20.874-11.983h15.076c7.345 0 15.076 4.639 19.328 11.983 1.546 0 1.546 1.546 1.546 1.546l5.798 13.53h4.639c7.345 0 13.53 5.798 13.53 13.53v45.614c0.773 1.16 1.16 2.319 1.546 3.479 3.092 13.53 10.437 25.513 20.874 35.564 23.194 23.967 35.177 56.824 32.085 92.775zM167.767 640.628h-52.186v25.513h52.186v-25.513zM195.986 731.47c-11.983-11.983-20.874-25.513-25.513-38.656h-56.438c-4.639 15.076-13.53 28.219-25.513 38.656-17.782 17.782-26.673 43.295-25.513 69.968 4.639 38.656 34.404 69.968 71.514 74.606 1.546 0 4.639 0 7.345 0 1.546 0 4.639 0 5.798 0 38.656-4.639 68.421-35.564 73.060-74.606 3.866-26.673-5.412-52.186-24.74-69.968zM580.228 804.53c-7.345 50.639-47.547 92.388-96.64 98.186-3.092 0-5.798 0-8.891 0-4.639 0-7.345 0-10.437 0-50.639-5.798-90.842-47.547-95.481-98.186-3.092-34.404 8.891-68.421 32.858-92.388 8.504-8.504 14.689-18.555 18.555-28.606-0.387-1.16-0.773-2.706-0.773-4.252v-52.186c1.546-7.345 7.345-13.53 13.53-13.53h4.639l5.798-13.53 1.546-1.546c4.639-7.345 13.53-11.983 20.874-11.983h15.076c7.345 0 15.076 4.639 19.328 11.983 1.546 0 1.546 1.546 1.546 1.546l5.798 13.53h4.639c7.345 0 13.53 5.798 13.53 13.53v45.614c0.773 1.16 1.16 2.319 1.546 3.479 3.092 13.53 10.437 25.513 20.874 35.564 23.194 23.967 35.177 56.824 32.085 92.775zM498.277 640.628h-52.186v25.513h52.186v-25.513zM526.496 731.47c-11.983-11.983-20.874-25.513-25.513-38.656h-56.438c-4.639 15.076-13.53 28.219-25.513 38.656-17.782 17.782-26.673 43.295-25.513 69.968 4.639 38.656 34.404 69.968 71.514 74.606 1.546 0 4.639 0 7.345 0 1.546 0 4.639 0 5.798 0 38.656-4.639 68.421-35.564 73.060-74.606 3.866-26.673-5.412-52.186-24.74-69.968zM940.116 804.53c-7.345 50.639-47.547 92.388-96.64 98.186-3.092 0-5.798 0-8.891 0-4.639 0-7.345 0-10.437 0-50.639-5.798-90.842-47.547-95.481-98.186-3.092-34.404 8.891-68.421 32.858-92.388 8.504-8.504 14.689-18.555 18.555-28.606-0.387-1.16-0.773-2.706-0.773-4.252v-52.186c1.546-7.345 7.345-13.53 13.53-13.53h4.639l5.798-13.53 1.546-1.546c4.639-7.345 13.53-11.983 20.874-11.983h15.076c7.345 0 15.076 4.639 19.328 11.983 1.546 0 1.546 1.546 1.546 1.546l5.798 13.53h4.639c7.345 0 13.53 5.798 13.53 13.53v45.614c0.773 1.16 1.16 2.319 1.546 3.479 3.092 13.53 10.437 25.513 20.874 35.564 23.194 23.967 34.79 56.824 32.085 92.775zM858.165 640.628h-52.186v25.513h52.186v-25.513zM886.384 731.47c-11.983-11.983-20.874-25.513-25.513-38.656h-56.438c-4.639 15.076-13.53 28.219-25.513 38.656-17.782 17.782-26.673 43.295-25.513 69.968 4.639 38.656 34.404 69.968 71.514 74.606 1.546 0 4.639 0 7.345 0 1.546 0 4.639 0 5.798 0 38.656-4.639 68.421-35.564 73.060-74.606 3.479-26.673-5.412-52.186-24.74-69.968zM429.856 485.618c-7.345 50.639-47.547 92.388-96.64 98.186-3.092 0-5.798 0-8.891 0-4.639 0-7.345 0-10.437 0-50.639-5.798-90.842-47.547-95.481-98.186-3.092-34.404 8.891-68.421 32.858-92.388 8.504-8.504 14.689-18.555 18.555-28.606-0.387-1.16-0.773-2.706-0.773-4.252v-51.799c1.546-7.345 7.345-13.53 13.53-13.53h4.639l5.798-13.53 1.546-1.546c4.639-7.345 13.53-11.983 20.874-11.983h15.076c7.345 0 15.076 4.639 19.328 11.983 1.546 0 1.546 1.546 1.546 1.546l5.798 13.53h4.639c7.345 0 13.53 5.798 13.53 13.53v45.614c0.773 1.16 1.16 2.319 1.546 3.479 3.092 13.53 10.437 25.513 20.874 35.564 23.194 23.967 35.177 56.824 32.085 92.388zM347.905 321.716h-52.186v25.513h52.186v-25.513zM376.124 412.558c-11.983-11.983-20.874-25.513-25.513-38.656h-56.438c-4.639 15.076-13.53 28.219-25.513 38.656-17.782 17.782-26.673 43.295-25.513 69.968 4.639 38.656 34.404 69.968 71.514 74.606 1.546 0 4.639 0 7.345 0 1.546 0 4.639 0 5.798 0 38.656-4.639 68.421-35.564 73.060-74.606 3.479-26.673-5.412-51.799-24.74-69.968zM761.139 490.643c-7.345 50.639-47.547 92.388-96.64 98.186-3.092 0-5.798 0-8.891 0-4.639 0-7.345 0-10.437 0-50.639-5.798-90.842-47.547-95.481-98.186-3.092-34.404 8.891-68.421 32.858-92.388 8.504-8.504 14.689-18.555 18.555-28.606-0.387-1.16-0.773-2.706-0.773-4.252v-52.186c1.546-7.345 7.345-13.53 13.53-13.53h4.639l5.798-13.53 1.546-1.546c4.639-7.345 13.53-11.983 20.874-11.983h15.076c7.345 0 15.076 4.639 19.328 11.983 1.546 0 1.546 1.546 1.546 1.546l5.798 13.53h4.639c7.345 0 13.53 5.798 13.53 13.53v45.614c0.773 1.16 1.16 2.319 1.546 3.479 3.092 13.53 10.437 25.513 20.874 35.564 22.807 24.353 34.79 56.824 32.085 92.775zM679.188 326.741h-52.186v25.513h52.186v-25.513zM707.407 417.583c-11.983-11.983-20.874-25.513-25.513-38.656h-56.438c-4.639 15.076-13.53 28.219-25.513 38.656-17.782 17.782-26.673 43.295-25.513 69.968 4.639 38.656 34.404 69.968 71.514 74.606 1.546 0 4.639 0 7.345 0 1.546 0 4.639 0 5.798 0 38.656-4.639 68.421-35.564 73.060-74.606 3.479-26.673-5.412-52.186-24.74-69.968zM580.228 167.091c-7.345 50.639-47.547 92.388-96.64 98.186-3.092 0-5.798 0-8.891 0-4.639 0-7.345 0-10.437 0-50.639-5.798-90.842-47.547-95.481-98.186-3.092-34.404 8.891-68.421 32.858-92.388 8.504-8.504 14.689-18.555 18.555-28.606-0.387-1.16-0.773-2.706-0.773-4.252v-52.186c1.546-7.345 7.345-13.53 13.53-13.53h4.639l5.798-13.53 1.546-1.546c4.639-7.345 13.53-11.983 20.874-11.983h15.076c7.345 0 15.076 4.639 19.328 11.983 1.546 0 1.546 1.546 1.546 1.546l5.798 13.53h4.639c7.345 0 13.53 5.798 13.53 13.53v45.614c0.773 1.16 1.16 2.319 1.546 3.479 3.092 13.53 10.437 25.513 20.874 35.564 23.194 23.967 35.177 56.824 32.085 92.775zM498.277 3.189h-52.186v25.513h52.186v-25.513zM526.496 94.031c-11.983-11.983-20.874-25.513-25.513-38.656h-56.438c-4.639 15.076-13.53 28.219-25.513 38.656-17.782 17.782-26.673 43.295-25.513 69.968 4.639 38.656 34.404 69.968 71.514 74.606 1.546 0 4.639 0 7.345 0 1.546 0 4.639 0 5.798 0 38.656-4.639 68.421-35.564 73.060-74.606 3.866-26.673-5.412-52.186-24.74-69.968z" />
<glyph unicode="&#x6c;" glyph-name="light" horiz-adv-x="709" d="M234.944 38.788h234.944c22.165 0 39.896 17.732 39.896 39.896v155.152c0 22.165-17.732 39.896-39.896 39.896h-234.944c-22.165 0-39.896-17.732-39.896-39.896v-155.152c4.433-22.165 22.165-39.896 39.896-39.896zM274.84 114.148v79.792h155.152v-79.792h-155.152zM376.797-41.004h-44.329c-22.165 0-48.762 13.299-62.061 35.463 0 0-4.433 4.433-4.433 4.433l-26.597 62.061c-4.433 13.299-4.433 26.597 0 39.896 8.866 13.299 17.732 17.732 31.030 17.732h164.017c13.299 0 26.597-8.866 31.030-17.732 8.866-13.299 8.866-26.597 0-39.896l-26.597-62.061c0 0 0-4.433-4.433-4.433-13.299-22.165-35.463-35.463-57.628-35.463zM385.662 898.771c-8.866 0-17.732 0-26.597 0-13.299 0-22.165 0-31.030 0-150.719-17.732-270.407-141.853-283.706-292.571-8.866-101.957 26.597-203.913 97.524-274.84 31.030-31.030 53.195-70.926 62.061-106.39 4.433-17.732 17.732-31.030 39.896-31.030h230.511c17.732 0 35.463 13.299 39.896 31.030 8.866 39.896 31.030 75.359 62.061 106.39 70.926 70.926 106.39 168.45 97.524 274.84-22.165 150.719-141.853 274.84-288.139 292.571zM270.407 273.732c-13.299 44.329-39.896 84.225-75.359 115.255-53.195 53.195-79.792 128.554-75.359 208.346 13.299 115.255 101.957 208.346 212.779 221.645 4.433 0 13.299 0 22.165 0 4.433 0 13.299 0 17.732 0 115.255-13.299 203.913-106.39 217.212-221.645 8.866-79.792-17.732-155.152-75.359-208.346-35.463-35.463-62.061-75.359-75.359-115.255h-168.45z" />
<glyph unicode="&#x70;" glyph-name="paper" horiz-adv-x="1153" d="M1097.788 217.349c-0.753 29.365-24.847 52.706-54.212 52.706h-136.282v478.118c0 73.035-59.482 132.518-132.518 132.518h-592.565c-73.035 0-132.518-59.482-132.518-132.518v-610.635c0-95.624 77.553-173.176 173.176-173.176h701.741c95.624 0 173.176 77.553 173.176 173.176v79.812zM323.012 217.349v0-80.565c0-51.2-41.412-92.612-92.612-92.612h-7.529c-51.2 0-92.612 41.412-92.612 92.612v611.388c0 28.612 23.341 51.953 51.953 51.953h592.565c28.612 0 51.953-23.341 51.953-51.953v-478.118h-449.506c-29.365 0-53.459-23.341-54.212-52.706zM1017.224 177.443v-39.906c0-51.2-41.412-92.612-92.612-92.612h-548.141c17.318 27.106 27.106 58.729 27.106 92.612v51.953h613.647v-12.047zM222.118 422.149h521.788v-80.565h-521.788v80.565zM222.118 715.043h284.612v-80.565h-284.612v80.565zM222.118 568.973h521.788v-80.565h-521.788v80.565z" />
<glyph unicode="&#x20ac;" glyph-name="euro" horiz-adv-x="1014" d="M512 907.868c-259.549 0-471.446-211.897-471.446-471.446s211.897-471.446 471.446-471.446 471.446 211.897 471.446 471.446c0 260.562-211.897 471.446-471.446 471.446zM512 837.911c222.036 0 401.489-179.453 401.489-401.489s-179.453-401.489-401.489-401.489-401.489 179.453-401.489 401.489c0 223.050 179.453 401.489 401.489 401.489zM542.416 699.012c-111.525 0-205.814-72.998-241.299-174.384h-50.693c-19.263 0-34.471-15.208-34.471-34.471s15.208-34.471 34.471-34.471h35.485c0-6.083-1.014-11.152-1.014-17.236s0-12.166 1.014-17.236h-35.485c-19.263 0-34.471-15.208-34.471-34.471s15.208-34.471 34.471-34.471h49.679c35.485-101.386 130.788-174.384 242.313-174.384 80.095 0 137.885 31.43 186.55 81.109 15.208 12.166 17.236 34.471 5.069 49.679s-34.471 17.236-48.665 5.069c-2.028-2.028-4.055-3.042-5.069-5.069-40.554-41.568-71.984-59.818-136.871-59.818-72.998 0-135.857 42.582-167.287 104.428h154.107c19.263 0 34.471 15.208 34.471 34.471s-15.208 34.471-34.471 34.471h-174.384c0 6.083-1.014 12.166-1.014 17.236 0 6.083 1.014 12.166 1.014 17.236h173.37c19.263 0 34.471 15.208 34.471 34.471s-15.208 34.471-34.471 34.471h-154.107c31.43 61.846 94.289 104.428 167.287 104.428 64.887 0 96.317-17.236 136.871-58.804 12.166-15.208 33.457-17.236 48.665-6.083 15.208 12.166 17.236 33.457 6.083 48.665-1.014 2.028-3.042 4.055-5.069 5.069-48.665 48.665-106.455 80.095-186.55 80.095z" />
</font>
</defs>
</svg>
